PathFileType	4	(X/Y/Z)	output.trc
DataRate	CameraRate	NumFrames	NumMarkers	Units	OrigDataRate	OrigDataStartFrame	OrigNumFrames
128	128	16	47	mm	128	876	1000
Frame#	Time	C7			LSHO			RSHO			CLAV			T10			LUPA			RELB			LELB			LFRA			RFRA			RWRB			RWRA			RFIN			LWRB			LWRA			LFIN			RASI			LASI			RPSI			LPSI			RANK			LANK			LMMA			LHEE			LTOE			RMMA			RHEE			RTOE			RMT5			LMT5			RKNE			LKNE			LMFC			RMFC			RFM2			LFM2			RTP2			RTP3			RTA3			LTP2			LTP3			LTA3			LBHD			RBHD			RFHD			RGTR			LGTR			
		X1	Y1	Z1	X2	Y2	Z2	X3	Y3	Z3	X4	Y4	Z4	X5	Y5	Z5	X6	Y6	Z6	X7	Y7	Z7	X8	Y8	Z8	X9	Y9	Z9	X10	Y10	Z10	X11	Y11	Z11	X12	Y12	Z12	X13	Y13	Z13	X14	Y14	Z14	X15	Y15	Z15	X16	Y16	Z16	X17	Y17	Z17	X18	Y18	Z18	X19	Y19	Z19	X20	Y20	Z20	X21	Y21	Z21	X22	Y22	Z22	X23	Y23	Z23	X24	Y24	Z24	X25	Y25	Z25	X26	Y26	Z26	X27	Y27	Z27	X28	Y28	Z28	X29	Y29	Z29	X30	Y30	Z30	X31	Y31	Z31	X32	Y32	Z32	X33	Y33	Z33	X34	Y34	Z34	X35	Y35	Z35	X36	Y36	Z36	X37	Y37	Z37	X38	Y38	Z38	X39	Y39	Z39	X40	Y40	Z40	X41	Y41	Z41	X42	Y42	Z42	X43	Y43	Z43	X44	Y44	Z44	X45	Y45	Z45	X46	Y46	Z46	X47	Y47	Z47	

876	6.83594	1339.34784	1338.57786	1319.34204	1185.98958	1277.57085	1206.88363	1010.96454	1016.86981	878.25393	857.00446	700.73940	710.69133	617.30986	716.43226	721.45416	615.76547	991.97029	998.18938	1176.95698	1180.20926	65.60657	67.27448	80.43128	27.06943	38.54342	52.55526	23.44149	34.97389	25.85809	24.95129	503.78578	511.61598	513.08878	522.20400	595.28399	640.03046	275.63484	327.03462	302.06837	292.21050	355.54868	311.46009	1232.42258	1632.42258	1262.42258	1232.42258	1632.42258	1402.42258	1432.42258	1632.42258	1402.42258	700.73940	716.43226	
877	6.84375	1339.42506	1338.63337	1319.37733	1185.99199	1277.61501	1206.91470	1011.03194	1016.92272	878.16355	857.08410	700.81275	710.75732	617.34301	716.44520	721.56080	615.80862	992.04400	998.26844	1176.96047	1180.18893	65.63373	67.26055	80.44577	27.11157	38.54492	52.57955	23.51314	34.95413	25.92163	24.98269	503.74935	511.59433	513.05070	522.19216	595.32016	640.02008	275.62990	326.98077	302.07427	292.13758	355.49771	311.41499	1232.47858	1632.47858	1262.47858	1232.47858	1632.47858	1402.47858	1432.47858	1632.47858	1402.47858	700.81275	716.44520	
878	6.85156	1339.52322	1338.67459	1319.45616	1186.07751	1277.62701	1206.92868	1011.09324	1017.04540	878.22611	857.12998	700.87044	710.82136	617.42572	716.49514	721.62184	615.84541	992.10787	998.33767	1176.95412	1180.21520	65.60180	67.26724	80.46920	27.03775	38.51644	52.58792	23.52318	34.94913	25.90968	24.97494	503.74943	511.55750	513.05394	522.19900	595.31799	639.96779	275.64991	327.01305	302.03300	292.17269	355.48119	311.42677	1232.55132	1632.55132	1262.55132	1232.55132	1632.55132	1402.55132	1432.55132	1632.55132	1402.55132	700.87044	716.49514	
879	6.85938	1339.60354	1338.75184	1319.54113	1186.17833	1277.66421	1206.98716	1011.17948	1017.09814	878.39769	857.19332	700.94007	710.86760	617.44371	716.53596	721.69590	615.93926	992.16296	998.39811	1176.93899	1180.18725	65.62996	67.24025	80.45247	27.13493	38.51366	52.62327	23.46827	34.99942	25.90550	24.95506	503.76119	511.54577	513.03381	522.20472	595.28055	639.92826	275.65837	327.01445	302.07068	292.12500	355.46792	311.43984	1232.63217	1632.63217	1262.63217	1232.63217	1632.63217	1402.63217	1432.63217	1632.63217	1402.63217	700.94007	716.53596	
880	6.86719	1339.60470	1338.79145	1319.57929	1186.22861	1277.65855	1207.04577	1011.20726	1017.15472	878.39136	857.25566	701.01553	710.87621	617.52360	716.60962	721.76769	615.96919	992.24088	998.48138	1176.94669	1180.17230	65.64151	67.26561	80.44707	27.08006	38.54006	52.61273	23.51924	34.96309	25.86727	24.95320	503.74626	511.55982	513.00664	522.20015	595.30812	639.85316	275.64467	327.03535	302.10342	292.16592	355.49676	311.46763	1232.65848	1632.65848	1262.65848	1232.65848	1632.65848	1402.65848	1432.65848	1632.65848	1402.65848	701.01553	716.60962	
881	6.87500	1339.63794	1338.85282	1319.63563	1186.27378	1277.69200	1207.05486	1011.32978	1017.20617	878.34008	857.31603	701.06708	710.97611	617.57017	716.77171	721.81043	616.03062	992.30231	998.54816	1176.93790	1180.16944	65.64391	67.24483	80.43563	27.13741	38.53701	52.61910	23.46910	34.96370	25.87441	24.96344	503.75156	511.58869	513.02101	522.19108	595.33621	639.89741	275.65382	327.03103	302.10433	292.15501	355.54577	311.45716	1232.70879	1632.70879	1262.70879	1232.70879	1632.70879	1402.70879	1432.70879	1632.70879	1402.70879	701.06708	716.77171	
882	6.88281	1339.70902	1338.87730	1319.71179	1186.32648	1277.71378	1207.15772	1011.38536	1017.21018	878.32789	857.38245	701.15954	711.01966	617.64935	716.68168	721.84583	616.05160	992.37916	998.63037	1176.94453	1180.13660	65.69098	67.22785	80.48019	27.12404	38.52509	52.57517	23.47627	34.95402	25.95436	25.00839	503.77010	511.61421	513.02946	522.20600	595.32796	639.85456	275.64370	327.03169	302.05660	292.18416	355.52353	311.43864	1232.76604	1632.76604	1262.76604	1232.76604	1632.76604	1402.76604	1432.76604	1632.76604	1402.76604	701.15954	716.68168	
883	6.89062	1339.79510	1338.96068	1319.76920	1186.31512	1277.71221	1207.18195	1011.46790	1017.28601	878.32577	857.45140	701.25214	711.11509	617.75909	716.72117	721.86368	616.07249	992.44249	998.69905	1176.93764	1180.13442	65.60604	67.25321	80.44399	27.09557	38.53254	52.60387	23.44869	34.98529	25.88717	24.92016	503.77239	511.52423	513.03625	522.18179	595.32290	639.74033	275.67648	326.99966	302.02390	292.13889	355.51929	311.41875	1232.84166	1632.84166	1262.84166	1232.84166	1632.84166	1402.84166	1432.84166	1632.84166	1402.84166	701.25214	716.72117	
884	6.89844	1339.87075	1339.00812	1319.88635	1186.42960	1277.74296	1207.24938	1011.57105	1017.34204	878.40747	857.57099	701.34074	711.20459	617.86398	716.73059	721.92242	616.09523	992.50409	998.76601	1176.92902	1180.13038	65.60878	67.25052	80.46096	27.06566	38.50175	52.58726	23.46242	34.93880	25.89709	24.90790	503.74802	511.57253	512.99072	521.92658	595.31544	639.78972	275.68028	327.02103	302.03941	292.13623	355.50934	311.37888	1232.92174	1632.92174	1262.92174	1232.92174	1632.92174	1402.92174	1432.92174	1632.92174	1402.92174	701.34074	716.73059	
885	6.90625	1339.96956	1339.09092	1319.96973	1186.56838	1277.74453	1207.30420	1011.65892	1017.38802	878.43367	857.65076	701.45169	711.29156	617.91439	716.92758	721.96010	616.12973	992.55573	998.82299	1176.91044	1180.13084	65.61072	67.24045	80.45908	27.06824	38.57614	52.59604	23.45902	34.96400	25.88107	24.93075	503.74961	511.53762	512.99334	521.91714	595.38719	639.73990	275.66634	327.00556	302.08155	292.10531	355.45558	311.37892	1233.01007	1633.01007	1263.01007	1233.01007	1633.01007	1403.01007	1433.01007	1633.01007	1403.01007	701.45169	716.92758	
886	6.91406	1340.03331	1339.17588	1319.97725	1186.65937	1277.79007	1207.34169	1011.75342	1017.42598	878.42758	857.70681	701.52279	711.31224	617.96069	716.81967	722.02458	616.18719	992.64605	998.91866	1176.93054	1180.13976	65.60575	67.25615	80.47109	27.09862	38.54382	52.60358	23.48567	34.99509	25.92879	24.98129	503.76676	511.53457	512.98314	521.92993	595.37431	639.74012	275.68176	327.02303	302.01323	292.11852	355.47016	311.38984	1233.06215	1633.06215	1263.06215	1233.06215	1633.06215	1403.06215	1433.06215	1633.06215	1403.06215	701.52279	716.81967	
887	6.92188	1340.08843	1339.20567	1320.14825	1186.84668	1277.80067	1207.41352	1011.82531	1017.47720	878.51889	857.76458	701.57005	711.40101	618.07728	716.90214	722.06694	616.26824	992.71280	998.99077	1176.92707	1180.12315	65.63807	67.24637	80.45335	27.09463	38.55789	52.60752	23.51906	34.98505	25.86655	24.97778	503.76875	511.56610	512.97884	521.95107	595.34620	639.84322	275.65656	327.05348	302.07131	292.13650	355.51632	311.43093	1233.14745	1633.14745	1263.14745	1233.14745	1633.14745	1403.14745	1433.14745	1633.14745	1403.14745	701.57005	716.90214	
888	6.92969	1340.10795	1339.29088	1320.16483	1186.94604	1277.78340	1207.45980	1011.82782	1017.55150	878.70340	857.78795	701.59979	711.49362	618.05289	716.94705	722.12729	616.31326	992.75020	999.03352	1176.89425	1180.12740	65.61053	67.22704	80.46147	27.03382	38.57041	52.58012	23.39008	34.95294	25.91199	24.96544	503.74274	511.56007	513.02927	521.92077	595.33184	639.82324	275.66784	327.06266	302.06790	292.10373	355.53618	311.39993	1233.18789	1633.18789	1263.18789	1233.18789	1633.18789	1403.18789	1433.18789	1633.18789	1403.18789	701.59979	716.94705	
889	6.93750	1340.25479	1339.36560	1320.28830	1187.03004	1277.82509	1207.50448	1011.89306	1017.60953	878.62105	857.85908	701.65008	711.47573	618.17766	717.00846	722.17483	616.35186	992.82267	999.11134	1176.89650	1180.14002	65.61240	67.24951	80.42139	27.08194	38.58251	52.58501	23.47793	35.00139	25.87159	24.91698	503.78812	511.55602	512.97895	521.91918	595.35864	639.77114	275.65287	327.03857	302.12242	292.14084	355.50285	311.38508	1233.30290	1633.30290	1263.30290	1233.30290	1633.30290	1403.30290	1433.30290	1633.30290	1403.30290	701.65008	717.00846	
890	6.94531	1340.33679	1339.48471	1320.27626	1187.16492	1277.85162	1207.59190	1011.94482	1017.66357	878.68381	857.88314	701.69890	711.49118	618.17164	717.05789	722.23325	616.39516	992.92663	999.22065	1176.93024	1180.12641	65.64219	67.24895	80.45104	27.06753	38.55399	52.60886	23.45185	35.00097	25.94505	24.92957	503.72141	511.55809	512.97436	521.94433	595.33977	639.78896	275.65123	327.05218	302.02538	292.10881	355.45154	311.42287	1233.36592	1633.36592	1263.36592	1233.36592	1633.36592	1403.36592	1433.36592	1633.36592	1403.36592	701.69890	717.05789	
891	6.95312	1340.44619	1339.54650	1320.43431	1187.29000	1277.88963	1207.63513	1011.97001	1017.74102	878.83872	857.92762	701.74276	711.51184	618.15405	717.11734	722.26973	616.46258	993.00309	999.30247	1176.93649	1180.14189	65.60688	67.22250	80.45408	27.01314	38.51521	52.60119	23.46863	34.97463	25.87713	24.89034	503.74480	511.56843	512.94613	521.96791	595.33552	639.76707	275.69820	327.04906	302.02123	292.10186	355.42341	311.41006	1233.47567	1633.47567	1263.47567	1233.47567	1633.47567	1403.47567	1433.47567	1633.47567	1403.47567	701.74276	717.11734	
